<svg width="585" height="382" viewBox="0 0 585 382" fill="none" xmlns="http://www.w3.org/2000/svg">
<g filter="url(#filter0_d)">
<path d="M189.598 201.587L208.981 201.314V212.507C206.797 212.143 204.249 211.961 201.337 211.961C198.425 211.961 195.149 212.143 191.509 212.507C191.509 226.521 184.775 240.717 171.307 255.095C157.839 269.473 141.55 281.121 122.44 290.039C103.512 299.139 85.858 303.689 69.478 303.689C60.924 303.689 53.917 301.505 48.457 297.137C43.179 292.769 40.54 287.036 40.54 279.938C40.54 269.382 47.547 258.371 61.561 246.905C75.575 235.439 91.955 225.975 110.701 218.513C129.447 211.051 146.373 206.683 161.479 205.409C159.659 202.679 156.838 200.313 153.016 198.311C149.194 196.309 141.368 193.215 129.538 189.029C117.708 184.661 109.336 179.929 104.422 174.833C99.508 169.555 97.051 162.184 97.051 152.72C97.051 143.256 102.147 132.427 112.339 120.233C122.531 108.039 134.543 97.847 148.375 89.657C162.389 81.285 174.674 77.099 185.23 77.099C189.962 77.099 193.875 78.828 196.969 82.286C200.063 85.562 201.61 89.657 201.61 94.571C201.61 102.579 196.787 112.68 187.141 124.874C177.495 136.886 166.757 146.077 154.927 152.447L148.375 143.165C155.473 139.525 161.661 133.883 166.939 126.239C172.399 118.413 175.129 111.679 175.129 106.037C175.129 100.395 172.126 97.574 166.12 97.574C157.566 97.574 147.738 102.943 136.636 113.681C125.716 124.237 120.256 134.156 120.256 143.438C120.256 149.808 121.894 154.813 125.17 158.453C128.446 162.093 136.727 166.643 150.013 172.103C163.299 177.381 172.763 182.113 178.405 186.299C184.047 190.303 187.778 195.399 189.598 201.587ZM67.84 272.84C67.84 281.576 74.938 285.944 89.134 285.944C96.96 285.944 107.061 283.032 119.437 277.208C131.995 271.566 143.006 263.558 152.47 253.184C162.116 242.992 166.939 232.527 166.939 221.789C166.939 220.515 166.666 218.604 166.12 216.056C141.186 218.422 118.527 225.429 98.143 237.077C77.941 248.725 67.84 260.646 67.84 272.84ZM283.77 220.424L289.776 227.249C285.226 234.347 279.675 239.898 273.123 243.902C266.753 247.906 260.292 249.908 253.74 249.908C247.188 249.908 242.001 248.088 238.179 244.448C234.357 240.626 232.446 235.439 232.446 228.887C232.446 213.599 238.179 192.487 249.645 165.551C240.363 167.007 231.081 169.191 221.799 172.103L219.888 161.456L219.615 161.183C228.715 157.361 240.636 154.267 255.378 151.901C256.834 149.171 260.11 142.528 265.206 131.972C275.398 111.042 282.678 97.483 287.046 91.295L298.785 95.936C296.965 99.94 293.78 106.674 289.23 116.138C284.68 125.42 279.584 135.976 273.942 147.806C282.132 147.26 288.593 146.987 293.325 146.987C298.057 146.987 301.697 147.715 304.245 149.171V160.91C301.697 160.364 297.966 160.091 293.052 160.091C288.32 160.091 279.766 160.91 267.39 162.548C256.652 186.572 251.283 204.044 251.283 214.964C251.283 219.15 252.557 222.608 255.105 225.338C257.835 228.068 261.384 229.433 265.752 229.433C270.302 229.433 276.308 226.43 283.77 220.424ZM365.692 135.248C355.5 135.248 350.404 131.153 350.404 122.963C350.404 118.413 351.678 114.591 354.226 111.497C356.774 108.403 360.05 106.856 364.054 106.856C368.058 106.856 371.334 108.039 373.882 110.405C376.43 112.771 377.704 115.865 377.704 119.687C377.704 123.509 376.612 127.058 374.428 130.334C372.244 133.61 369.332 135.248 365.692 135.248ZM362.143 215.783L367.603 220.424C363.235 228.796 357.411 235.985 350.131 241.991C343.033 247.815 336.572 250.727 330.748 250.727C320.556 250.727 315.46 243.629 315.46 229.433C315.46 211.779 322.74 188.756 337.3 160.364C340.576 154.176 342.487 150.536 343.033 149.444L354.772 156.542C350.95 163.458 346.218 174.469 340.576 189.575C335.116 204.681 332.386 214.418 332.386 218.786C332.386 222.972 333.296 225.975 335.116 227.795C336.936 229.615 339.12 230.525 341.668 230.525C346.582 230.525 353.407 225.611 362.143 215.783ZM425.636 224.792L431.369 229.433C425.181 239.079 419.812 246.086 415.262 250.454C410.894 254.64 405.98 256.733 400.52 256.733C395.06 256.733 390.601 254.549 387.143 250.181C383.685 245.813 381.956 240.353 381.956 233.801C381.956 221.061 390.328 193.67 407.072 151.628C423.816 109.404 441.015 72.276 458.669 40.244L470.681 46.796C452.845 81.376 436.738 115.774 422.36 149.99C407.982 184.024 400.793 208.503 400.793 223.427C400.793 231.981 403.978 236.258 410.348 236.258C415.444 236.258 420.54 232.436 425.636 224.792ZM499.752 224.792L505.485 229.433C499.297 239.079 493.928 246.086 489.378 250.454C485.01 254.64 480.096 256.733 474.636 256.733C469.176 256.733 464.717 254.549 461.259 250.181C457.801 245.813 456.072 240.353 456.072 233.801C456.072 221.061 464.444 193.67 481.188 151.628C497.932 109.404 515.131 72.276 532.785 40.244L544.797 46.796C526.961 81.376 510.854 115.774 496.476 149.99C482.098 184.024 474.909 208.503 474.909 223.427C474.909 231.981 478.094 236.258 484.464 236.258C489.56 236.258 494.656 232.436 499.752 224.792Z" fill="white"/>
</g>
<g filter="url(#filter1_d)">
<path d="M189.598 201.587L208.981 201.314V212.507C206.797 212.143 204.249 211.961 201.337 211.961C198.425 211.961 195.149 212.143 191.509 212.507C191.509 226.521 184.775 240.717 171.307 255.095C157.839 269.473 141.55 281.121 122.44 290.039C103.512 299.139 85.858 303.689 69.478 303.689C60.924 303.689 53.917 301.505 48.457 297.137C43.179 292.769 40.54 287.036 40.54 279.938C40.54 269.382 47.547 258.371 61.561 246.905C75.575 235.439 91.955 225.975 110.701 218.513C129.447 211.051 146.373 206.683 161.479 205.409C159.659 202.679 156.838 200.313 153.016 198.311C149.194 196.309 141.368 193.215 129.538 189.029C117.708 184.661 109.336 179.929 104.422 174.833C99.508 169.555 97.051 162.184 97.051 152.72C97.051 143.256 102.147 132.427 112.339 120.233C122.531 108.039 134.543 97.847 148.375 89.657C162.389 81.285 174.674 77.099 185.23 77.099C189.962 77.099 193.875 78.828 196.969 82.286C200.063 85.562 201.61 89.657 201.61 94.571C201.61 102.579 196.787 112.68 187.141 124.874C177.495 136.886 166.757 146.077 154.927 152.447L148.375 143.165C155.473 139.525 161.661 133.883 166.939 126.239C172.399 118.413 175.129 111.679 175.129 106.037C175.129 100.395 172.126 97.574 166.12 97.574C157.566 97.574 147.738 102.943 136.636 113.681C125.716 124.237 120.256 134.156 120.256 143.438C120.256 149.808 121.894 154.813 125.17 158.453C128.446 162.093 136.727 166.643 150.013 172.103C163.299 177.381 172.763 182.113 178.405 186.299C184.047 190.303 187.778 195.399 189.598 201.587ZM67.84 272.84C67.84 281.576 74.938 285.944 89.134 285.944C96.96 285.944 107.061 283.032 119.437 277.208C131.995 271.566 143.006 263.558 152.47 253.184C162.116 242.992 166.939 232.527 166.939 221.789C166.939 220.515 166.666 218.604 166.12 216.056C141.186 218.422 118.527 225.429 98.143 237.077C77.941 248.725 67.84 260.646 67.84 272.84ZM283.77 220.424L289.776 227.249C285.226 234.347 279.675 239.898 273.123 243.902C266.753 247.906 260.292 249.908 253.74 249.908C247.188 249.908 242.001 248.088 238.179 244.448C234.357 240.626 232.446 235.439 232.446 228.887C232.446 213.599 238.179 192.487 249.645 165.551C240.363 167.007 231.081 169.191 221.799 172.103L219.888 161.456L219.615 161.183C228.715 157.361 240.636 154.267 255.378 151.901C256.834 149.171 260.11 142.528 265.206 131.972C275.398 111.042 282.678 97.483 287.046 91.295L298.785 95.936C296.965 99.94 293.78 106.674 289.23 116.138C284.68 125.42 279.584 135.976 273.942 147.806C282.132 147.26 288.593 146.987 293.325 146.987C298.057 146.987 301.697 147.715 304.245 149.171V160.91C301.697 160.364 297.966 160.091 293.052 160.091C288.32 160.091 279.766 160.91 267.39 162.548C256.652 186.572 251.283 204.044 251.283 214.964C251.283 219.15 252.557 222.608 255.105 225.338C257.835 228.068 261.384 229.433 265.752 229.433C270.302 229.433 276.308 226.43 283.77 220.424ZM365.692 135.248C355.5 135.248 350.404 131.153 350.404 122.963C350.404 118.413 351.678 114.591 354.226 111.497C356.774 108.403 360.05 106.856 364.054 106.856C368.058 106.856 371.334 108.039 373.882 110.405C376.43 112.771 377.704 115.865 377.704 119.687C377.704 123.509 376.612 127.058 374.428 130.334C372.244 133.61 369.332 135.248 365.692 135.248ZM362.143 215.783L367.603 220.424C363.235 228.796 357.411 235.985 350.131 241.991C343.033 247.815 336.572 250.727 330.748 250.727C320.556 250.727 315.46 243.629 315.46 229.433C315.46 211.779 322.74 188.756 337.3 160.364C340.576 154.176 342.487 150.536 343.033 149.444L354.772 156.542C350.95 163.458 346.218 174.469 340.576 189.575C335.116 204.681 332.386 214.418 332.386 218.786C332.386 222.972 333.296 225.975 335.116 227.795C336.936 229.615 339.12 230.525 341.668 230.525C346.582 230.525 353.407 225.611 362.143 215.783ZM425.636 224.792L431.369 229.433C425.181 239.079 419.812 246.086 415.262 250.454C410.894 254.64 405.98 256.733 400.52 256.733C395.06 256.733 390.601 254.549 387.143 250.181C383.685 245.813 381.956 240.353 381.956 233.801C381.956 221.061 390.328 193.67 407.072 151.628C423.816 109.404 441.015 72.276 458.669 40.244L470.681 46.796C452.845 81.376 436.738 115.774 422.36 149.99C407.982 184.024 400.793 208.503 400.793 223.427C400.793 231.981 403.978 236.258 410.348 236.258C415.444 236.258 420.54 232.436 425.636 224.792ZM499.752 224.792L505.485 229.433C499.297 239.079 493.928 246.086 489.378 250.454C485.01 254.64 480.096 256.733 474.636 256.733C469.176 256.733 464.717 254.549 461.259 250.181C457.801 245.813 456.072 240.353 456.072 233.801C456.072 221.061 464.444 193.67 481.188 151.628C497.932 109.404 515.131 72.276 532.785 40.244L544.797 46.796C526.961 81.376 510.854 115.774 496.476 149.99C482.098 184.024 474.909 208.503 474.909 223.427C474.909 231.981 478.094 236.258 484.464 236.258C489.56 236.258 494.656 232.436 499.752 224.792Z" fill="white"/>
</g>
<g filter="url(#filter2_d)">
<path d="M158 289H486.808C523.736 290.963 570.275 302.312 461.009 332" stroke="white" stroke-width="18" stroke-linecap="round" stroke-linejoin="round"/>
</g>
<defs>
<filter id="filter0_d" x="0.540039" y="0.244003" width="584.257" height="343.445" filterUnits="userSpaceOnUse" color-interpolation-filters="sRGB">
<feFlood flood-opacity="0" result="BackgroundImageFix"/>
<feColorMatrix in="SourceAlpha" type="matrix" values="0 0 0 0 0 0 0 0 0 0 0 0 0 0 0 0 0 0 127 0"/>
<feOffset/>
<feGaussianBlur stdDeviation="20"/>
<feColorMatrix type="matrix" values="0 0 0 0 0.952941 0 0 0 0 0.917647 0 0 0 0 0.764706 0 0 0 1 0"/>
<feBlend mode="normal" in2="BackgroundImageFix" result="effect1_dropShadow"/>
<feBlend mode="normal" in="SourceGraphic" in2="effect1_dropShadow" result="shape"/>
</filter>
<filter id="filter1_d" x="0.540039" y="0.244003" width="584.257" height="343.445" filterUnits="userSpaceOnUse" color-interpolation-filters="sRGB">
<feFlood flood-opacity="0" result="BackgroundImageFix"/>
<feColorMatrix in="SourceAlpha" type="matrix" values="0 0 0 0 0 0 0 0 0 0 0 0 0 0 0 0 0 0 127 0"/>
<feOffset/>
<feGaussianBlur stdDeviation="20"/>
<feColorMatrix type="matrix" values="0 0 0 0 0.952941 0 0 0 0 0.917647 0 0 0 0 0.764706 0 0 0 1 0"/>
<feBlend mode="normal" in2="BackgroundImageFix" result="effect1_dropShadow"/>
<feBlend mode="normal" in="SourceGraphic" in2="effect1_dropShadow" result="shape"/>
</filter>
<filter id="filter2_d" x="109" y="240" width="469.018" height="141.002" filterUnits="userSpaceOnUse" color-interpolation-filters="sRGB">
<feFlood flood-opacity="0" result="BackgroundImageFix"/>
<feColorMatrix in="SourceAlpha" type="matrix" values="0 0 0 0 0 0 0 0 0 0 0 0 0 0 0 0 0 0 127 0"/>
<feOffset/>
<feGaussianBlur stdDeviation="20"/>
<feColorMatrix type="matrix" values="0 0 0 0 0.952941 0 0 0 0 0.917647 0 0 0 0 0.764706 0 0 0 1 0"/>
<feBlend mode="normal" in2="BackgroundImageFix" result="effect1_dropShadow"/>
<feBlend mode="normal" in="SourceGraphic" in2="effect1_dropShadow" result="shape"/>
</filter>
</defs>
</svg>
